<svg id="Image" height="512" viewBox="0 0 64 64" width="512" xmlns="http://www.w3.org/2000/svg"><path d="m32 53c4.953 0 10-6.561 10-13 0-1.467-.295-2.947-.762-4.342l3.932 1.142 2.776 11.104-4.856 10.682c-.547 1.202 1.274 2.03 1.82.827l5-11c.094-.206.115-.437.06-.656l-3-12c-.086-.345-.35-.618-.691-.718l-6.036-1.754c-.224-.448-.459-.878-.703-1.286h7.95l7.398 10.172-2.837 8.512c-.42 1.258 1.478 1.892 1.897.633l3-9c.102-.307.05-.644-.14-.905l-8-11c-.187-.258-.488-.411-.808-.411h-9.851c-.376-.461-.742-.853-1.089-1.166l8.044-.84c.288-.03.549-.184.715-.421l7-10c.193-.276.234-.631.109-.945l-2-5c-.492-1.226-2.349-.487-1.857.743l1.799 4.498-6.428 9.183-7.462.779c-.026-.116-.051-.232-.088-.348l6.588-3.607c.321-.174.52-.511.52-.876v-11c0-.197-.059-.391-.168-.555l-4-6c-.732-1.1-2.399.007-1.664 1.109l3.832 5.749v10.104l-6.099 3.34c-.229-.26-.491-.487-.768-.695l.77-1.623c.132-.278.128-.601-.009-.876l-1-2c-.59-1.183-2.381-.29-1.789.895l.782 1.564-.555 1.169c-.915-.239-1.751-.24-2.666 0l-.555-1.169.782-1.564c.592-1.185-1.199-2.078-1.789-.895l-1 2c-.137.275-.141.598-.009.876l.77 1.623c-.277.208-.538.435-.768.695l-6.097-3.34v-10.104l3.832-5.748c.734-1.102-.932-2.21-1.664-1.109l-4 6c-.109.163-.168.357-.168.554v11c0 .365.199.702.52.877l6.588 3.607c-.037.116-.062.232-.088.348l-7.462-.779-6.428-9.183 1.799-4.498c.492-1.23-1.365-1.969-1.857-.743l-2 5c-.125.313-.084.668.109.945l7 10c.167.238.427.391.715.421l8.044.84c-.346.313-.713.704-1.089 1.166h-9.851c-.32 0-.621.153-.809.412l-8 11c-.19.261-.242.598-.14.905l3 9c.42 1.259 2.317.625 1.897-.633l-2.837-8.512 7.398-10.173h7.95c-.244.408-.479.838-.703 1.286l-6.036 1.754c-.342.1-.605.373-.691.718l-3 12c-.055.219-.034.451.06.656l5 11c.546 1.202 2.367.375 1.82-.827l-4.855-10.683 2.777-11.104 3.932-1.142c-.468 1.395-.763 2.875-.763 4.342 0 6.439 5.047 13 10 13zm0-28c2.076 0 3.354 1.921 3.037 3h-6.075c-.316-1.079.962-3 3.038-3zm3.396 5c2.124 1.564 4.604 6.295 4.604 10 0 5.243-4.187 11-8 11s-8-5.757-8-11c0-3.705 2.48-8.436 4.604-10z"/></svg>