<?xml version="1.0" encoding="UTF-8" standalone="no"?>
<svg xmlns="http://www.w3.org/2000/svg" width="400" height="400">
  <path fill="#fff" fill-rule="evenodd" d="M0 400h400V0H0"/>
  <path fill="#0e0e0e" fill-rule="evenodd" d="M30.8617435 118.949227c-1.494288.26305-3.439332.58538-4.323555.7175-5.034884.75333-10.427904 13.68818-8.910151 21.37573 1.457238 7.38623 5.654828 10.94041 20.643396 17.477 1.662241.72491 4.043222 1.79808 9.879588 4.45322 1.494287.68045 3.82834 1.72893 5.186784 2.33158 1.358442.60142 3.80364 1.71411 5.433772 2.47236 1.630132.75827 4.186475 1.93147 5.680763 2.60822 12.393942 5.61283 15.545531 7.17134 19.918478 9.84748 2.126588 1.3004 3.937021 2.36492 4.024693 2.36492.08889 0 1.658551.91016 3.487502 2.02161 1.830199 1.11146 4.076563 2.4452 4.990432 2.96389.915094.51867 2.497064 1.42019 3.515888 2.00308 1.920356 1.10033 4.514976 2.54029 10.003086 5.55479 3.29115 1.80797 13.78944 7.01204 15.56035 7.71349.54338.21488 1.70176.65823 2.57488.98673l1.5869.59647-.29762 6.49214c-.35567 7.79621.16548 7.1417-4.46928 5.61036-10.81568-3.57394-15.76906-4.10744-21.41895-2.30564-6.10682 1.9475-5.885764 1.77956-5.885764 4.49027 0 2.35504-.920027 3.52206-3.548003 4.50015-1.186784.44211.46434 3.59246 1.959863 3.73818 1.564677.15314 2.132747.8163 1.016363 1.18926-3.044154 1.01389 3.864159 5.79067 8.405051 5.81167 1.38685.005 1.59803.14819 1.29422.87188-1.21765 2.89842-.71379 3.76782 2.48103 4.28032 1.51157.24329 2.38221.0803 3.70484-.69527.95091-.5582 2.95153-1.61285 4.4458-2.34394l2.7169-1.33004 16.79529.11604c21.78573.15065 23.34794-.17413 22.77369-4.73357-.63476-5.03612-.82-11.25037-.35689-11.93578.53842-.79777-.25317-1.0003 10.18585 2.60822 5.79685 2.00432 9.88082 3.07996 18.0216 4.74714 6.54769 1.34116 21.96479 1.1448 35.82215-.45446 11.34547-1.31028 11.60851-1.2473 11.60851 2.74034 0 1.2115.76321 1.98951 2.22291 2.26367.74097.13956.94968.51003.83606 1.48194-.16549 1.41648 1.96233 3.37265 3.68632 3.38623 1.35597.0107 1.93269.53103 2.95275 2.66131 1.56223 3.26398 5.52517 3.80982 16.72986 2.30441 1.90181-.25563 5.34732-.71996 7.65668-1.03364 2.30935-.31368 7.75547-.75703 12.10249-.98673 15.36401-.81013 19.0182-3.56531 19.0182-14.34516 0-5.57456-1.31768-5.00277 15.37758-6.66378l8.21364-.81754 4.13584 2.23649c12.66317 6.84779 5.54616 17.7845-17.60047 27.04414-.54337.21736-1.76598.63105-2.71689.91756-.9509.28774-2.78975.85706-4.08644 1.26583-1.29794.40876-4.07657 1.07686-6.17474 1.4844-5.86353 1.13862-9.06329 1.77338-11.22693 2.22662-2.83914.59401-6.11298 1.23988-17.53626 3.45786-11.42327 2.21797-14.69713 2.86384-17.53627 3.45786-1.08676.22722-3.30966.67428-4.93979.99289-16.22723 3.17134-29.15837 7.75795-33.8487 12.0037-9.23865 8.36554-2.69219 11.58382 19.77029 9.71905 3.3961-.28158 9.06452-.73851 12.59647-1.0139 3.53194-.27664 8.86693-.71874 11.8555-.98303 2.98858-.26304 7.87897-.69526 10.86754-.95955 20.54832-1.81414 35.42575-3.24545 41.49428-3.99136 9.7919-1.20283 14.03024-1.86353 20.74713-3.23061 2.17352-.44212 4.50756-.91016 5.18679-1.0386 12.33836-2.35133 26.63289-9.91663 33.59059-17.77831 8.14695-9.20408 13.78203-23.3924 13.88823-34.96757.0889-9.7141-8.65947-24.07655-19.56899-32.12718-1.08676-.80149-2.08706-1.58445-2.2229-1.74004-2.27108-2.59709-20.52609-12.32727-29.14479-15.53565-1.2226-.45571-2.66748-1.0139-3.21087-1.24113-1.83761-.76814-8.38653-3.04661-10.12657-3.52331-.95091-.26057-2.3958-.66811-3.21087-.90521-18.00431-5.24854-34.49211-6.90583-54.09074-5.43748-33.4103 2.50447-36.41863 2.63167-47.58256 2.02408-11.15036-.60636-19.92466-1.29175-26.1451-2.04013-14.1451-1.703-18.69958-2.40445-26.05618-4.00988-9.92527-2.16487-17.27323-5.11392-23.21703-9.31398-.67922-.4804-2.34639-1.53505-3.70484-2.3427-1.35844-.80889-4.35936-2.63908-6.66871-4.06916-15.62581-9.67212-22.3217-11.19974-36.801472-8.3927-4.91139.95214-8.12473 1.10898-10.484713.5125-1.29793-.3285-3.303488-.80271-4.458163-1.05588-1.154678-.25317-3.155293-.69776-4.445815-.98797-1.290521-.29021-3.235565-.72368-4.322319-.96078-7.313366-1.60049-19.265196-4.5693-23.958001-5.95123-4.279096-1.26087-8.482859-1.55972-12.349483-.88174m11.361525 5.48071c5.385611 1.8981 14.49212 4.27538 24.204989 6.31799 1.494288.31491 3.606051.75825 4.692805.98548 7.751771 1.62272 15.62828 1.79932 22.476059.50139 11.655448-2.20809 17.399198-.6187 33.912918 9.38685 3.21827 1.95121 6.5193 3.93454 7.33437 4.40877.81506.47421 2.59338 1.52145 3.95182 2.32663 3.94814 2.34024 12.65575 6.43408 14.94289 7.02315 13.92404 3.59247 28.87556 5.60914 51.74433 6.97747 4.89039.29268 10.16363.77183 11.71966 1.06451 2.81692.53103 4.13708.47052 23.84685-1.10403 3.53196-.28157 8.31121-.71628 10.62057-.96449 14.73046-1.58321 32.76935-.99168 45.69308 1.49799 5.46341 1.0534 6.89596 1.37573 10.86754 2.44643 2.17352.58659 4.61872 1.24359 5.43378 1.46095 32.73972 8.71008 58.0327 25.52885 63.56403 42.2661 1.59802 4.83605.43099 19.09601-2.02161 24.69897-4.60636 10.52299-10.84285 17.52268-20.38899 22.88483-.96079.53843-2.1661 1.22012-2.6786 1.51281-1.81167 1.0349-7.63446 3.51218-8.25565 3.51218-.34701 0-.84099.18402-1.0991.40754-.2581.22476-1.46959.70146-2.69218 1.05959-1.22261.35814-3.22322.96944-4.44581 1.35844-1.2226.38779-3.11208.88545-4.19884 1.10529-1.08674.21858-3.64309.73849-5.68076 1.15468-7.64309 1.5622-11.2442 2.01543-34.08457 4.30009-2.71688.27168-7.10713.71008-9.75608.9756-2.64897.26429-7.20593.70886-10.12659.98796-2.92065.27786-7.58875.72368-10.37356.98919-2.78481.26552-7.95307.71875-11.48502 1.00648-3.53195.28899-8.5335.7348-11.11455.99168-2.58103.25686-8.93855.61499-14.12781.79407-10.64278.36924-11.5196.12719-8.54707-2.36123 2.65885-2.22415 5.86106-3.88144 11.37387-5.88453 4.2334-1.53751 13.7388-4.15313 17.72275-4.87558 1.2226-.22229 4.00124-.76443 6.17474-1.20531 2.17352-.44086 5.17443-1.04229 6.66873-1.3362 1.49428-.29516 3.60604-.72739 4.6928-.9608 1.08675-.2334 4.53226-.89533 7.65668-1.47082 3.12442-.57549 6.56993-1.23742 7.65668-1.47083 2.31058-.49644 5.43995-1.11269 12.59647-2.481 13.71164-2.6218 14.60203-2.82928 21.24111-4.96079 1.76598-.56808 3.65545-1.21643 4.19884-1.44242 6.79468-2.82804 8.23585-3.55542 11.90983-6.00803 13.89071-9.27323 15.24173-21.67458 3.02685-27.7814l-5.55108-2.77616-7.4097.48039c-7.01326.45446-12.01481 1.00155-16.16916 1.76845-1.43008.26303-1.90924.16795-2.13771-.42606-.44211-1.15344 1.33251-10.99474 2.48596-13.78449.26674-.64588-.0765-1.01636-1.4943-1.60915-1.93886-.81012-3.18492-.40629-3.18492 1.03366 0 .37789-.19513 1.07317-.43348 1.54492-1.73509 3.43439-2.88236 11.7172-2.13028 15.364 1.39302 6.74034.55943 13.39548-1.96233 15.68878-2.1908 1.99197-3.09108 2.16115-11.46897 2.16115-7.02686 0-16.07779.47423-22.65883 1.1868-2.06483.22475-2.49213-.54955-.86446-1.56592 2.41432-1.50787.5903-3.82093-2.88361-3.65792-2.08089.0976-2.21673.0394-1.40414-.60018 1.51405-1.1942.9509-3.9395-.87064-4.25193-.80024-.13708-1.41154-.41618-1.35844-.61995.0519-.20376.0951-1.25964.0951-2.3464v-1.97591h2.1871c1.20283 0 3.81475.20623 5.80425.45693 1.9895.25193 5.80425.59154 8.47792.75455l4.86076.29639-.27787-3.09972c-.78912-8.78295-.89781-16.19264-.30256-20.56561.53227-3.90366.52363-4.68785-.0569-5.05586-.9608-.60884-3.27879-.55573-3.67398.0828-.61377.99289-1.45847 11.54058-1.3819 17.25098.0963 7.14541 2.09323 6.46743-14.61314 4.95955-6.60699-.59523-8.2507-.44334-10.01544.93239-3.55048 2.76629-24.0605 5.96356-38.24882 5.96356-9.96851 0-18.04507-1.41277-31.05524-5.43253-1.90184-.58784-3.90245-1.19419-4.44583-1.34733-.54337-.15313-1.21025-.42852-1.48194-.61254-.27169-.18277-1.44241-.63228-2.60079-.99783-3.22322-1.01637-3.364-1.91294-1.12998-7.17011.23093-.54337.68787-1.76598 1.01389-2.71689.32602-.95091.77061-2.1735.98796-2.71687.21734-.5434.66193-1.76599.98796-2.7169.32602-.95092.78543-2.17351 1.01883-2.71688 1.14356-2.65762 2.03766-6.27725 1.64125-6.64773-1.34487-1.26212-3.63939-1.0954-4.17166.30379-.29021.76443-.82248 2.0599-1.18185 2.87866-.35936.81878-1.36709 3.37883-2.23773 5.68818-.87186 2.30936-1.77091 4.64341-1.99938 5.18678-.22723.54339-.84346 2.32171-1.36831 3.95184-.92252 2.86508-1.27448 4.10619-2.66132 9.3856-.35813 1.36462-.6397 4.94721-.62858 8.00371l.0211 5.53503-17.55726.21242c-9.65605.11614-18.40196.37419-19.43562.57425-1.49799.28775-2.00802.18648-2.51065-.50139-.34702-.47422-1.50169-1.00895-2.56622-1.18678-1.76721-.29763-1.92158-.44706-1.78449-1.72028.0864-.79779-.20377-1.78451-.67923-2.3106-.78296-.86569-.78048-1.5758.0124-3.49489.24205-.58414-.0938-1.07195-1.17814-1.71165-2.80951-1.65978.3569-2.37111 5.0954-1.14479 6.1451 1.58936 8.76689 2.35133 13.56344 3.94566l4.12102 1.36954 1.14356-.99412c1.11269-.96698 1.1448-1.23124 1.15715-9.5054.0107-7.94567.55325-13.51652 2.11793-21.76968.98796-5.21271.87435-6.31799-.70762-6.87989-1.72522-.61253-3.0071.0864-3.19605 1.74375-.0752.65082-.33837 2.07347-.58536 3.16022-.24824 1.08677-.71875 3.69868-1.04723 5.80427-.62243 4.00494-.69899 4.10621-2.53165 3.37636-.62489-.24824-3.0244-1.18185-5.33375-2.07596-3.79747-1.46958-12.13584-5.54616-16.91879-8.27168-4.13338-2.35629-5.168257-2.95648-7.533195-4.37543-1.358443-.81384-4.359357-2.65266-6.668716-4.08644-2.309349-1.43254-4.976846-3.04415-5.927753-3.58012-.950906-.53596-1.951211-1.14973-2.222901-1.36461-.271691-.21365-1.549867-.96821-2.840381-1.67583-1.290525-.70763-3.402287-1.88083-4.692808-2.60698-3.506018-1.9722-16.911383-8.72985-18.894711-9.52392-.950911-.38036-2.951526-1.23248-4.445814-1.89317-1.494288-.6607-3.383759-1.48441-4.198825-1.8302-1.531335-.64958-3.165172-1.35351-7.409689-3.19482-6.12411-2.65512-15.757942-7.75177-17.546148-9.28309-3.077492-2.63291-2.792218-6.65638.503859-7.11455 1.155911-.16054 1.234948-.032 1.234948 1.99074 0 3.03179.991664 3.58011 3.912317 2.15992 2.472367-1.20037 2.582277-1.13614 3.049087 1.77587.390244 2.44395 2.168569 2.80702 5.073169 1.03611 1.964802-1.19789 1.768446-1.32756 2.674897 1.75734.797777 2.70947 2.653905 3.27508 5.590612 1.70422 1.533806-.82124 2.213028-.21488 2.625501 2.34641.379129 2.34516 1.930225 2.69464 5.005246 1.12503 2.436554-1.24236 2.828032-.98671 3.035502 1.98704l.154369 2.2229 2.175979-.10125c1.196666-.0556 2.408151-.33344 2.692189-.61748 1.03612-1.03612 1.800555-.5372 1.800555 1.17691 0 3.08119 1.412779 3.78017 4.561898 2.25872 2.761345-1.33375 2.768755-1.33126 3.14171 1.48194.380362 2.86632 1.762271 3.30843 4.722442 1.50787 1.821549-1.10775 2.393329-.93855 2.393329.7101 0 .99784 2.154986 3.2158 3.124416 3.2158.140789 0 2.179694 1.11146 4.532261 2.46991 2.352577 1.35844 4.353198 2.46988 4.445814 2.46988.09265 0 2.093247 1.11146 4.445825 2.4699 2.352578 1.35845 4.344535 2.4699 4.428521 2.4699.08276 0 1.89934.99907 4.035815 2.2192 4.69898 2.68355 4.38036 2.66872 5.60296.27293l.99537-1.95245-2.98858-1.7524c-1.64372-.96326-3.0775-1.75116-3.18741-1.75116-.10863 0-1.26458-.62612-2.56622-1.39178-1.302875-.76567-3.92466-2.23897-5.826484-3.27632-14.196969-7.73695-12.905207-6.78605-13.257165-9.75856-.428527-3.61963-1.048478-4.09756-4.007413-3.09232-2.734176.92869-3.11207.70146-3.325716-1.9932-.180303-2.26614-1.754862-2.60574-4.873107-1.05094-1.89441.94597-2.446432.69774-2.446432-1.1028 0-2.28343-2.814448-3.17877-4.668105-1.48566-1.285581 1.17445-2.193269.431-2.343932-1.91787-.185243-2.87743-1.873418-3.37264-5.390549-1.57826-2.18833 1.11639-3.404754.6397-3.404754-1.33375 0-2.88112-1.623957-3.61346-4.805185-2.1698-2.355045 1.06947-2.397034 1.04106-3.614693-2.43654-.952145-2.71814-3.457856-3.67274-4.992897-1.9043-1.074405 1.23988-1.774621.83976-2.163628-1.23371-.347022-1.84995-2.816919-3.38006-3.827106-2.36987-.818772.81877-1.343624.67303-1.343624-.3742 0-1.88452-1.289286-2.29823-4.489038-1.43994-3.445505.92251-3.750539.6644-2.844087-2.40816 1.113924-3.77523 3.213337-5.75238 6.902128-6.49829 1.731398-.34949 3.814755-.82372 4.629822-1.05218.815066-.22846 1.815374-.29885 2.222907-.15683.407531.14201 2.630439.92374 4.939793 1.73758m-9.879587 2.31675-2.716887.89164.166718 1.91664c.207472 2.37604.675516 2.90089 1.970978 2.20808 1.620252-.86693 3.728309-.65328 4.416175.44828.829885 1.33005 2.17104 1.24484 3.551712-.22475l1.138623-1.21149-2.087063-2.49335c-2.306884-2.75642-2.546464-2.81322-6.440256-1.53505m66.94038 12.86816c-1.885766 1.96852-4.037043 2.31924-7.212098 1.17814l-2.531651-.91139-1.179369 1.47577c-1.784508 2.2303.242048 4.03333 5.142314 4.57671 1.768461.19636 2.826805.70393 4.471749 2.14635 2.225385 1.95122 4.607607 2.74034 6.692187 2.21673.98919-.24823 1.31152-.0432 1.85243 1.18061.71873 1.62272 1.2189 1.76844 3.10837.90769 3.01328-1.37326-.58907-9.07564-5.99321-12.8163-2.551393-1.76721-2.615623-1.76598-4.350722.0457m3.698672 85.7116c0 .40753-.22229.74096-.49397.74096-.27171 0-.49399-.33343-.49399-.74096 0-.40754.22228-.74098.49399-.74098.27168 0 .49397.33344.49397.74098"/>
</svg>